<svg xmlns="http://www.w3.org/2000/svg" viewBox="0 0 147.973 123.502" width="100%" height="100%">
  <path fill="currentColor" transform="translate(27.973, 50.58)" d="M120 72.922s-9.61-8.076-12.874-4.025c-5.25 6.515 16.14 38.968 16.14 50.396 0 18.759-12.517 23.86-27.973 26.539-10.371 1.798-27.259-.752-27.259-.752 3.18-4.273 5.248-5.532 10.606-5.873-5.965-3.097-12.039-9.82-12.039-20.284 0-16.138 6.643-22.79 6.643-40.983 0-10.093-8.276-22.941-8.276-22.941 14.629 1.464 21.879 15.009 17.754 25.834 2.328.335 4.442-.19 6.258-1.91 1.07 3-.62 6.483-2.883 9.484 1.823.974 3.162.39 6.066-.21-.276 3.092-2.128 6.376-6.66 9.468 13.151-3.415 21.243 5.751 21.243 15.347 0 7.248-5.079 12.443-10.044 12.443-1.604 0-3.961-.661-5.29-1.654-.938 1.995-.455 4.665.51 6.66-3.638-.962-5.948-3.123-4.304-7.621-2.795-.257-5.018-1.201-6.53-3 1.532-1.963 3.857-3.093 6.53-3.001-2.035-4.2.233-6.55 3.538-8.456 0 0-2.102 8.456 3.265 8.456 2.413 0 4.612-.786 4.612-4.343 0-3.097-2.707-7.387-8.966-7.114s-11.332 4.315-11.332 14.306c0 9.216 7.434 13.8 17.23 14.096 8.833.273 15.5-4.512 15.5-13.625 0-12.128-17.508-39.773-17.508-50.58 0-8.11 7.292-12.636 14.427-12.636 9.252 0 17.058 9.161 17.058 9.161l-5.435 6.815z" />
</svg>